<svg width="54" height="59" viewBox="0 0 54 59" fill="none" xmlns="http://www.w3.org/2000/svg">
<path d="M50.4989 11.8565L29.7667 0.729095C27.9563 -0.243032 25.7804 -0.243032 23.97 0.729095L3.22037 11.8565C1.23593 12.9328 0 14.9812 0 17.2379V40.8641C0 43.1208 1.23593 45.1692 3.22037 46.2455L23.9526 57.3729C24.8404 57.8416 25.85 58.102 26.8422 58.102C27.8344 58.102 28.8441 57.8589 29.7493 57.3729L50.4815 46.2455C52.4659 45.1692 53.7019 43.1208 53.7019 40.8641V17.2379C53.7019 14.9812 52.4659 12.9328 50.4815 11.8565H50.4989ZM47.1741 39.2496C47.1741 40.135 46.6867 40.9509 45.9033 41.3675L27.9911 50.9672C27.643 51.1582 27.2426 51.245 26.8596 51.245C26.4767 51.245 26.0763 51.1408 25.7282 50.9672L7.81593 41.3675C7.03259 40.9509 6.54519 40.135 6.54519 39.2496V36.0034C6.54519 34.6841 7.62444 33.6078 8.94741 33.6078C10.2704 33.6078 11.3496 34.6841 11.3496 36.0034V37.8088L26.8596 46.124L42.3696 37.8088V34.2848L25.7978 24.0254C24.6663 23.331 24.3182 21.8555 25.0319 20.7271C25.7282 19.5988 27.2252 19.2516 28.3393 19.9633L46.0426 30.9345C46.7563 31.3685 47.1741 32.1496 47.1741 32.9655V39.267V39.2496ZM47.1741 22.0812C47.1741 23.4005 46.0948 24.4768 44.7719 24.4768C43.4489 24.4768 42.3696 23.4005 42.3696 22.0812V20.2758L26.8596 11.9606L11.3496 20.2758V23.7998L27.9215 34.0592C29.053 34.7535 29.4011 36.2291 28.6874 37.3575C28.2348 38.0865 27.4515 38.4858 26.6507 38.4858C25.85 38.4858 25.7804 38.3643 25.38 38.1213L7.67667 27.1501C6.96296 26.7161 6.54519 25.935 6.54519 25.1191V18.8176C6.54519 17.9323 7.03259 17.1164 7.81593 16.6998L25.7282 7.1C26.4419 6.71809 27.2948 6.71809 28.0085 7.1L45.9207 16.6998C46.7041 17.1164 47.1915 17.9323 47.1915 18.8176V22.0638L47.1741 22.0812Z" fill="#C9B173"/>
</svg>
